<?xml version="1.0" standalone="no"?>
<!DOCTYPE svg PUBLIC "-//W3C//DTD SVG 20010904//EN"
 "http://www.w3.org/TR/2001/REC-SVG-20010904/DTD/svg10.dtd">
<svg version="1.0" xmlns="http://www.w3.org/2000/svg"
 width="200.000000pt" height="200.000000pt" viewBox="0 0 200.000000 200.000000"
 preserveAspectRatio="xMidYMid meet">

<g transform="translate(0.000000,200.000000) scale(0.100000,-0.100000)"
fill="#000000" stroke="none">
<path d="M910 1870 l0 -70 -47 0 c-37 0 -69 11 -139 46 -79 40 -98 45 -155 45
-113 0 -206 -58 -290 -182 -105 -155 -120 -253 -57 -380 20 -41 58 -98 83
-128 108 -126 122 -213 74 -446 -23 -109 -24 -266 -4 -351 30 -127 112 -266
176 -299 37 -19 98 -22 128 -6 31 17 38 42 40 156 4 165 31 324 72 410 27 58
71 105 98 105 21 0 21 -1 21 -360 l0 -360 49 0 50 0 3 38 3 37 70 7 c39 3 93
12 120 18 28 7 71 12 97 11 44 -2 52 2 92 41 74 74 185 143 230 144 31 0 45 7
68 33 26 29 29 39 24 71 -5 32 0 48 32 102 50 81 86 173 107 273 15 66 23 85
49 106 25 22 31 34 31 69 0 35 -6 47 -32 69 -25 22 -33 39 -47 104 -19 96 -57
192 -108 275 -32 54 -37 70 -32 102 5 32 2 42 -24 71 -23 26 -37 33 -68 33
-45 1 -156 70 -230 144 -41 39 -48 43 -92 41 -26 -1 -66 4 -90 10 -24 7 -78
15 -120 19 l-77 7 -3 33 c-3 31 -4 32 -53 32 l-49 0 0 -70z m237 -71 c36 -6
66 -16 68 -23 19 -63 17 -68 -82 -186 -52 -63 -101 -122 -109 -130 -12 -12
-14 11 -14 168 l0 182 37 0 c20 0 65 -5 100 -11z m-526 -11 c19 -6 70 -38 113
-71 44 -32 102 -70 128 -83 l48 -24 0 -368 0 -368 -45 -12 c-140 -37 -224
-232 -242 -564 -3 -65 -9 -118 -14 -118 -13 0 -69 70 -93 118 -65 128 -76 272
-37 471 18 87 22 137 19 205 -6 117 -31 180 -108 276 -72 90 -102 147 -107
209 -9 93 112 277 210 322 49 22 81 24 128 7z m714 -38 c0 -18 -6 -26 -21 -28
-23 -3 -37 18 -27 44 10 25 48 13 48 -16z m153 -102 c44 -33 51 -42 46 -63 -3
-13 -1 -40 6 -59 11 -34 9 -38 -75 -171 l-87 -135 -184 0 -184 0 0 63 0 62
132 158 c128 153 132 157 170 157 27 0 45 7 61 23 26 27 35 24 115 -35z m166
-74 c7 -19 -10 -44 -29 -44 -19 0 -36 25 -29 44 3 9 16 16 29 16 13 0 26 -7
29 -16z m47 -166 c45 -79 77 -164 93 -249 l13 -66 -28 -31 -29 -32 -370 0
-370 0 0 65 0 65 203 0 202 0 98 155 c88 138 102 155 126 155 22 0 32 -10 62
-62z m167 -406 c4 -28 -24 -40 -45 -19 -14 13 -14 19 -3 32 18 22 44 15 48
-13z m-89 -64 l28 -31 -13 -68 c-15 -78 -53 -178 -97 -255 -26 -44 -36 -54
-58 -54 -24 0 -38 17 -126 155 l-98 155 -202 0 -203 0 0 65 0 65 370 0 370 0
29 -32z m-314 -293 c84 -133 86 -137 75 -171 -7 -19 -9 -46 -6 -59 5 -21 -2
-31 -55 -70 -34 -25 -66 -45 -71 -45 -5 0 -21 9 -35 20 -15 12 -41 20 -63 20
-36 0 -42 6 -168 158 l-132 157 0 63 0 62 184 0 184 0 87 -135z m-332 -235
c99 -118 101 -123 82 -186 -4 -13 -110 -34 -168 -34 l-37 0 0 182 c0 157 2
180 14 168 8 -8 57 -67 109 -130z m516 46 c16 -20 3 -46 -24 -46 -13 0 -26 7
-29 16 -7 19 10 44 29 44 7 0 18 -6 24 -14z m-314 -206 c0 -18 -6 -26 -21 -28
-23 -3 -37 18 -27 44 10 25 48 13 48 -16z"/>
</g>
</svg>
